<svg width="144" height="89" viewBox="0 0 144 89" fill="none" xmlns="http://www.w3.org/2000/svg">
<path fill-rule="evenodd" clip-rule="evenodd" d="M22 10.4431C22 5.17755 26.999 1.34804 32.0829 2.71898L34.7481 3.4377C41.3676 5.22272 42.8219 13.9628 37.1372 17.7952L34.4719 19.5919C29.1584 23.1741 22 19.3669 22 12.9586L22 10.4431Z" fill="#F7D7CD"/>
<path fill-rule="evenodd" clip-rule="evenodd" d="M3.41422 36.4142C2.15429 35.1543 3.04662 33 4.82843 33H10C11.1046 33 12 33.8954 12 35V40.1716C12 41.9534 9.84572 42.8457 8.58579 41.5858L3.41422 36.4142Z" fill="#F7D7CD"/>
<path d="M47.668 59C44.7713 59 42.668 57.6 42.668 55.6667C42.668 53.7333 44.7713 52.3333 47.668 52.3333C50.5646 52.3333 52.668 53.7333 52.668 55.6667C52.668 57.6 50.5646 59 47.668 59Z" fill="#F15A2A"/>
<path fill-rule="evenodd" clip-rule="evenodd" d="M27.4713 48.9967C30.5013 59.0333 37.7913 65.6667 46.0013 65.6667C54.2113 65.6667 61.5013 59.0333 64.5313 48.9967C67.2846 48.8367 69.3346 45.31 69.3346 40.6667C69.3346 39.3467 69.158 38.0533 68.828 36.8933C69.1713 35.2133 69.3346 33.7567 69.3346 32.3333C69.3346 19.4667 58.8646 9 46.0013 9C33.138 9 22.668 19.4667 22.668 32.3333C22.668 33.7567 22.8313 35.2133 23.1746 36.8933C22.8446 38.0533 22.668 39.3467 22.668 40.6667C22.668 45.31 24.718 48.8367 27.4713 48.9967ZM29.228 45.4967C29.0446 45.4233 28.848 45.39 28.6446 45.39C28.3013 45.39 27.9546 45.4867 27.668 45.6667C27.2546 45.6667 26.0013 43.8933 26.0013 40.6667C26.0013 39.5267 26.1646 38.43 26.4746 37.4967C26.5713 37.21 26.588 36.9067 26.5213 36.6133C26.168 34.99 26.0013 33.63 26.0013 32.3333C26.0013 21.3033 34.9713 12.3333 46.0013 12.3333C57.0313 12.3333 66.0013 21.3033 66.0013 32.3333C66.0013 33.63 65.8346 34.99 65.478 36.6133C65.4146 36.9067 65.4313 37.2133 65.5246 37.4967C65.838 38.43 66.0013 39.5267 66.0013 40.6667C66.0013 43.9033 64.778 45.7067 64.2313 45.5933C63.7813 45.31 63.2213 45.26 62.7246 45.46C62.228 45.66 61.858 46.0833 61.7313 46.6033C59.4013 56.0133 53.078 62.3333 46.0013 62.3333C38.9246 62.3333 32.6013 56.0133 30.2713 46.6033C30.1446 46.0833 29.7213 45.7 29.228 45.4967Z" fill="black"/>
<path d="M62.6666 39C62.0132 39 61.4132 38.6167 61.1432 38.01C61.0799 37.87 59.8532 35.0833 59.4566 32.2833C52.4666 31.83 45.2332 28.4067 41.6432 24.8567C41.3399 25.3867 40.9666 25.87 40.5266 26.3067C37.8566 28.97 33.6099 28.9967 31.4366 29C30.9499 30.1167 30.7432 33.7433 30.9966 37.2133C31.0332 37.7167 30.8366 38.2133 30.4666 38.5567C30.0899 38.9033 29.5832 39.0533 29.0832 38.98C29.0599 38.9767 26.7832 38.6367 24.8932 38.6367C23.9732 38.6367 23.2266 37.89 23.2266 36.97C23.2266 36.05 23.9732 35.3033 24.8932 35.3033C25.7966 35.3033 26.7566 35.37 27.5666 35.4433C27.4699 32.43 27.6232 28.12 29.1166 26.5167C29.7299 25.8567 30.5299 25.67 31.4599 25.6667C33.4666 25.6667 36.5532 25.5633 38.1766 23.9433C38.9566 23.17 39.3332 22.0967 39.3332 20.6667C39.3332 19.7467 40.0799 19 40.9999 19C41.9199 19 42.6666 19.7467 42.6666 20.6667C42.8599 22.34 51.2166 29 60.9999 29C61.9199 29 62.6666 29.7467 62.6666 30.6667C62.6666 32.3133 63.3066 34.3467 63.7599 35.5733L66.9699 35.31C67.8832 35.2367 68.6932 35.9167 68.7666 36.8367C68.8399 37.7533 68.1599 38.56 67.2432 38.6333L62.8032 38.9967C62.7566 39 62.7132 39 62.6666 39Z" fill="black"/>
<path fill-rule="evenodd" clip-rule="evenodd" d="M7.66744 89H84.3341C84.8474 89 85.3341 88.7633 85.6508 88.3533C85.9674 87.95 86.0774 87.42 85.9541 86.9233L83.3641 76.5667C82.7708 74.2033 81.1808 72.2233 79.0041 71.1333L61.7474 62.5067C61.3374 62.3033 60.8608 62.28 60.4274 62.4333C59.9941 62.59 59.6508 62.92 59.4674 63.3433L50.8841 83.3733L41.1174 83.38L32.5341 63.35C32.3508 62.9267 32.0074 62.5967 31.5741 62.44C31.1408 62.2833 30.6641 62.31 30.2541 62.5133L12.9974 71.14C10.8174 72.23 9.23078 74.21 8.63744 76.5733L6.04744 86.93C5.92411 87.4267 6.03411 87.9567 6.35078 88.36C6.66744 88.7633 7.15411 89 7.66744 89ZM82.2008 85.6667H53.5274L61.8408 66.28L77.5141 74.1167C78.8208 74.77 79.7741 75.96 80.1274 77.38L82.2008 85.6667ZM38.4774 85.6667H9.80411L11.8808 77.38C12.2341 75.9633 13.1841 74.7733 14.4941 74.12L30.1674 66.2833L38.4774 85.6667Z" fill="black"/>
<path d="M51.0007 57.3333C50.0807 57.3333 49.334 56.5867 49.334 55.6667C49.334 54.7467 50.0807 54 51.0007 54C54.674 54 64.334 51.95 64.334 47.3333C64.334 46.4133 65.0807 45.6667 66.0007 45.6667C66.9207 45.6667 67.6673 46.4133 67.6673 47.3333C67.6673 54.9633 55.4507 57.3333 51.0007 57.3333Z" fill="#F15A2A"/>
<path fill-rule="evenodd" clip-rule="evenodd" d="M138.926 30.0072C138.859 29.9896 138.791 29.9752 138.722 29.9664C135.419 29.5312 131.108 28.8424 126.542 28.1128C115.878 26.408 103.792 24.476 96.8864 24.4744C96.8848 24.4744 96.8834 24.4742 96.882 24.474C96.8806 24.4738 96.8792 24.4736 96.8776 24.4736C96.1472 24.4736 95.4784 24.6824 94.86 25.032C94.7352 25.0624 94.612 25.104 94.4944 25.1664L74.9 35.5568C74.8024 35.5384 74.7032 35.5264 74.6008 35.5264C73.7168 35.5264 73.0008 36.2432 73.0008 37.1264V38.7264V38.7368L73 64.2555C73 65.1387 74.016 66 74.9 66C75.7832 66 76.2008 65.1387 76.2008 64.2555V41.7232L93.2696 53.148C94.2648 54.348 95.468 55.0648 96.8784 55.0648C103.783 55.0648 115.875 53.132 126.543 51.4264C131.109 50.6968 135.42 50.008 138.722 49.5728C138.93 49.5456 139.131 49.4776 139.312 49.3728L139.386 49.3328C140.379 48.8 143.4 47.1784 143.4 39.7696C143.4 32.6896 140.967 30.5528 138.926 30.0072ZM121.455 39.7696C121.455 43.4248 120.837 46.8872 119.788 49.2576C117.322 49.6424 114.855 50.0168 112.457 50.3568C113.629 47.6032 114.306 43.8504 114.306 39.7696C114.306 35.732 113.621 31.9488 112.45 29.1808C114.848 29.5216 117.318 29.896 119.786 30.2816C120.833 32.6512 121.455 36.1368 121.455 39.7696ZM108.529 50.8888C110.082 48.836 111.106 44.4712 111.106 39.7696C111.106 35.0736 110.094 30.736 108.524 28.648C106.001 28.3248 103.622 28.0616 101.49 27.8912C103.115 30.8424 103.956 35.3152 103.956 39.7688C103.956 44.2224 103.114 48.696 101.49 51.6464C103.623 51.476 106.003 51.212 108.529 50.8888ZM76.7144 38.2168L91.1224 30.5768C90.2488 33.2528 89.8 36.5168 89.8 39.7696C89.8 42.4872 90.1168 45.212 90.7288 47.5976L76.7144 38.2168ZM96.8784 27.6744C95.5616 27.6744 93 31.944 93 39.7696C93 47.5952 95.5616 51.8648 96.8784 51.8648C98.1952 51.8648 100.757 47.5952 100.757 39.7696C100.757 31.952 98.2008 27.684 96.8784 27.6744ZM126.038 48.2672L125.48 48.3563C124.795 48.4658 124.104 48.5762 123.41 48.6856C124.209 46.144 124.656 43.0464 124.656 39.7688C124.656 36.5104 124.213 33.3984 123.416 30.852C124.297 30.9928 125.173 31.1328 126.038 31.2704L126.951 31.4162L126.952 31.4163C128.259 31.6251 129.54 31.8298 130.78 32.024C131.443 34.2352 131.806 36.944 131.806 39.768C131.806 42.5704 131.438 45.3 130.776 47.5128C129.376 47.7336 127.924 47.9658 126.442 48.2027L126.44 48.203L126.038 48.2672ZM134.224 46.9832C135.573 46.78 136.845 46.5952 137.999 46.4408C139.46 45.5576 140.2 43.3144 140.199 39.7696C140.199 35.3792 139.169 33.468 138.177 33.1216C136.974 32.9624 135.642 32.7704 134.223 32.556C134.73 34.7472 135.006 37.2248 135.006 39.7696C135.006 42.2968 134.73 44.7904 134.224 46.9832Z" fill="black"/>
<path d="M110.762 29.6265C110.762 29.6265 112.449 32.9806 112.813 39.0872C113.177 45.1938 110.762 49.9137 110.762 49.9137" stroke="#F15A2A" stroke-width="3.5" stroke-linecap="round"/>
<path d="M132.497 33.0363C132.497 33.0363 133.417 37.7083 133.417 39.7701C133.417 41.8319 132.957 46.2778 132.957 46.2778" stroke="#F15A2A" stroke-width="3.5" stroke-linecap="round"/>
</svg>
