<svg width="106" height="88" viewBox="0 0 106 88" fill="none" xmlns="http://www.w3.org/2000/svg">
<rect y="39.6" width="48.4" height="48.4" rx="24.2" fill="#F7D7CD"/>
<rect x="4.40039" y="15.4" width="13.2" height="13.2" rx="6.6" fill="#F7D7CD"/>
<path d="M41.2316 27.3183C38.0062 27.3183 35.0351 25.6373 32.7164 22.443C32.4776 22.1142 32.3842 21.7024 32.4586 21.3035C32.533 20.9038 32.7666 20.5526 33.1075 20.3311C38.8558 16.5865 45.1163 14.7662 52.2489 14.7662C53.0674 14.7662 53.7301 15.4298 53.7301 16.2482C53.7301 17.0667 53.0674 17.7303 52.2489 17.7303C46.203 17.7303 41.0412 19.0731 36.1408 21.9386C37.648 23.515 39.8265 24.8136 42.6938 24.1924C43.4257 24.0436 44.149 23.8697 44.8948 23.6906C46.9903 23.1888 49.3626 22.6195 52.1883 22.5035C53.0068 22.462 53.6972 23.1057 53.7301 23.9233C53.763 24.7409 53.1279 25.4305 52.3095 25.4642C49.7727 25.5689 47.6444 26.0785 45.5869 26.5725C44.8048 26.7594 44.0486 26.9411 43.3029 27.0925C42.6038 27.2439 41.9116 27.3183 41.2316 27.3183Z" fill="black"/>
<path d="M33.914 23.0547C33.5922 23.0547 33.2686 22.95 32.9952 22.7345C30.5744 20.8164 29.3112 18.5003 29.3424 16.0363C29.3856 12.7762 31.6057 9.47467 35.9403 6.2233C41.4256 2.09635 45.4556 0 52.2491 0C53.0675 0 53.7303 0.663599 53.7303 1.48207C53.7303 2.30054 53.0675 2.96414 52.2491 2.96414C46.2568 2.96414 42.7908 4.77843 37.7208 8.59305C34.2082 11.2276 32.3359 13.8145 32.3065 16.0752C32.2857 17.6074 33.1371 19.0662 34.8363 20.4107C35.4765 20.9194 35.5855 21.8512 35.0768 22.4923C34.7844 22.8617 34.3518 23.0547 33.914 23.0547Z" fill="black"/>
<path d="M63.2777 27.3183C62.5907 27.3183 61.8899 27.2422 61.1787 27.0891C60.452 26.9411 59.6958 26.7603 58.9171 26.5734C56.8563 26.0794 54.7262 25.5689 52.1894 25.4642C51.371 25.4305 50.7359 24.7409 50.7688 23.9233C50.8017 23.1057 51.4852 22.4568 52.3106 22.5036C55.1363 22.6195 57.5121 23.1888 59.6076 23.6915C60.3534 23.8706 61.0749 24.0436 61.7878 24.1889C64.6845 24.8205 66.844 23.5184 68.3252 21.942C63.4646 19.074 58.3132 17.7303 52.25 17.7303C51.4315 17.7303 50.7688 17.0667 50.7688 16.2482C50.7688 15.4298 51.4315 14.7662 52.25 14.7662C59.4017 14.7662 65.6483 16.5883 71.3464 20.3345C71.6839 20.5551 71.9157 20.903 71.9901 21.2983C72.0645 21.6937 71.9746 22.1021 71.741 22.43C69.469 25.6321 66.5187 27.3183 63.2777 27.3183Z" fill="black"/>
<path d="M70.5337 23.0547C70.0924 23.0547 69.6581 22.8591 69.3657 22.4862C68.8604 21.8425 68.9746 20.9107 69.6183 20.4063C71.3366 19.0601 72.1983 17.5997 72.1827 16.0665C72.1585 13.811 70.2897 11.2276 66.7788 8.59392C61.707 4.77844 58.2411 2.96414 52.2488 2.96414C51.4303 2.96414 50.7676 2.30054 50.7676 1.48207C50.7676 0.663599 51.4303 0 52.2488 0C59.0422 0 63.0723 2.09635 68.5593 6.22416C72.8939 9.4764 75.1105 12.7771 75.1451 16.0345C75.1642 17.7562 74.536 20.3163 71.4456 22.7389C71.1739 22.9517 70.8521 23.0547 70.5337 23.0547Z" fill="black"/>
<path d="M85.1992 87.9983H19.2996C18.4811 87.9983 17.8184 87.3355 17.8184 86.5171C17.8184 85.6986 18.4811 85.0359 19.2996 85.0359H85.1992C86.0177 85.0359 86.6804 85.6986 86.6804 86.5171C86.6804 87.3355 86.0177 87.9983 85.1992 87.9983Z" fill="black"/>
<path d="M46.9759 69.3137C46.6679 69.3137 46.3581 69.2185 46.0951 69.0247L34.7438 60.6358C34.0863 60.1496 33.9461 59.2204 34.4324 58.5628C34.9169 57.907 35.8444 57.7634 36.5054 58.2514L46.8547 65.9014L49.6372 63.2504L38.5784 58.2323C37.8326 57.8932 37.5038 57.0159 37.8412 56.2701C38.1804 55.5243 39.0525 55.1938 39.8035 55.5329L52.8626 61.4595C53.3108 61.6637 53.6292 62.0772 53.7105 62.5617C53.7936 63.048 53.6292 63.5429 53.2727 63.882L47.9985 68.9053C47.713 69.177 47.3462 69.3137 46.9759 69.3137Z" fill="black"/>
<path d="M46.6244 88C46.4479 88 46.2679 87.9671 46.0931 87.8996C45.33 87.6072 44.9476 86.7507 45.2418 85.9858L50.5523 72.1394L46.9012 67.8359C46.3717 67.2113 46.4479 66.2769 47.0725 65.7474C47.6955 65.2179 48.6316 65.294 49.1611 65.9187L53.3797 70.8918C53.7293 71.3053 53.8279 71.8764 53.6324 72.3816L48.0069 87.0483C47.782 87.6366 47.2196 88 46.6244 88Z" fill="black"/>
<path d="M57.8747 88C57.2795 88 56.7171 87.6366 56.4922 87.0483L50.8667 72.3816C50.6712 71.8764 50.7698 71.3053 51.1193 70.8918L55.338 65.9187C55.8658 65.2923 56.8054 65.2179 57.4266 65.7474C58.0512 66.2769 58.1274 67.2113 57.5979 67.8359L53.9468 72.1394L59.2573 85.9858C59.5515 86.7507 59.1691 87.6072 58.406 87.8996C58.2312 87.9671 58.0512 88 57.8747 88Z" fill="black"/>
<path d="M31.2546 87.9983C30.4362 87.9983 29.7734 87.3355 29.7734 86.5171V78.3791C29.7734 77.5606 30.4362 76.8979 31.2546 76.8979C32.0731 76.8979 32.7358 77.5607 32.7358 78.3791V86.5171C32.7358 87.3355 32.0731 87.9983 31.2546 87.9983Z" fill="black"/>
<path d="M73.2449 87.9983C72.4264 87.9983 71.7637 87.3355 71.7637 86.5171V78.3791C71.7637 77.5606 72.4264 76.8979 73.2449 76.8979C74.0633 76.8979 74.7261 77.5607 74.7261 78.3791V86.5171C74.7261 87.3355 74.0633 87.9983 73.2449 87.9983Z" fill="black"/>
<path fill-rule="evenodd" clip-rule="evenodd" d="M30.4986 60.0527C30.6249 60.7708 31.2495 61.2761 31.9555 61.2761C32.0403 61.2761 32.1268 61.2691 32.2151 61.2536L32.8103 61.1515L32.8153 61.1506C35.2851 60.7269 38.0843 60.2466 40.2838 57.8828C42.4122 55.5537 43.2151 47.9816 43.0299 44.7423C42.9832 43.9256 42.2859 43.2992 41.4657 43.3476C40.6489 43.3944 40.0243 44.0952 40.071 44.9119C40.2838 48.6322 39.1954 54.6816 38.1053 55.8738C36.5947 57.4969 34.5148 57.8534 32.3103 58.2306L31.6994 58.3362C30.8948 58.478 30.3567 59.2463 30.4986 60.0527ZM17.8184 86.5171C17.8184 87.3355 18.4811 87.9983 19.2996 87.9983C20.118 87.9983 20.7808 87.3355 20.7808 86.5171C20.7808 78.4241 22.4506 70.8156 25.3628 65.6453C25.7642 64.9324 25.5116 64.0291 24.7987 63.6277C24.0823 63.2228 23.1808 63.4788 22.7811 64.1918C18.4621 71.8608 17.8184 81.4713 17.8184 86.5171Z" fill="black"/>
<path fill-rule="evenodd" clip-rule="evenodd" d="M20.6892 66.8046C20.935 66.969 21.2205 67.0538 21.5112 67.0538C21.6375 67.0538 21.7638 67.0382 21.8884 67.0053L32.7863 64.1416C33.5217 63.9478 33.9906 63.2297 33.873 62.4787L33.1704 58.0091C33.1047 57.5921 32.8642 57.2235 32.5112 56.9951C32.1547 56.7632 31.7187 56.6992 31.3138 56.81L20.5145 59.7724C19.7981 59.9696 19.3378 60.667 19.4399 61.4041L20.0438 65.775C20.1009 66.1955 20.3363 66.5693 20.6892 66.8046ZM22.7501 63.7142L22.5529 62.2866L30.5005 60.1063L30.7375 61.6152L22.7501 63.7142Z" fill="#F15A2A"/>
<path d="M57.4733 69.3137C57.1013 69.3137 56.731 69.1752 56.4455 68.9001L51.2215 63.8768C50.8685 63.5359 50.7058 63.0428 50.7889 62.5583C50.872 62.0738 51.1904 61.6637 51.6368 61.4595L64.6959 55.533C65.4469 55.1955 66.319 55.526 66.6582 56.2701C66.9956 57.0159 66.6668 57.8932 65.921 58.2323L54.8518 63.2556L57.6014 65.8996L67.9975 58.2496C68.6516 57.7651 69.5825 57.9053 70.0687 58.5663C70.5533 59.2238 70.4114 60.1513 69.7521 60.6376L58.3506 69.0264C58.0894 69.2185 57.7814 69.3137 57.4733 69.3137Z" fill="black"/>
<path d="M52.1402 51.8853C48.2884 51.8853 44.8623 50.4231 41.9535 47.5386C36.1377 41.7687 33.4902 31.049 33.4902 23.5314C33.4902 22.7129 34.153 22.0493 34.9714 22.0493C35.7899 22.0493 36.4526 22.7129 36.4526 23.5314C36.4526 30.6752 39.0586 40.4925 44.0403 45.4345C46.3971 47.7722 49.1328 48.9316 52.2371 48.9212C64.0642 48.826 68.0458 31.4461 68.0458 23.5314C68.0458 22.7129 68.7086 22.0493 69.527 22.0493C70.3455 22.0493 71.0082 22.7129 71.0082 23.5314C71.0082 32.7335 66.4262 51.7711 52.2613 51.8836C52.2198 51.8836 52.18 51.8853 52.1402 51.8853Z" fill="black"/>
<path fill-rule="evenodd" clip-rule="evenodd" d="M72.2892 61.2553C72.3757 61.2691 72.4605 61.2761 72.5435 61.2761C73.2512 61.2761 73.8776 60.7691 74.0022 60.0475C74.1407 59.2412 73.6008 58.4746 72.7944 58.3344L72.2044 58.2341L72.2041 58.234C69.8803 57.843 67.8749 57.5055 66.4024 55.8825C65.3036 54.6816 64.2152 48.6322 64.4281 44.9119C64.4748 44.0952 63.8501 43.3944 63.0334 43.3476C62.2322 43.3044 61.5158 43.9256 61.4691 44.7423C61.284 47.9816 62.0869 55.5537 64.2118 57.8776C66.3695 60.2569 69.2091 60.7362 71.7129 61.1567L72.2892 61.2553ZM83.7183 86.5171C83.7183 87.3355 84.381 87.9983 85.1995 87.9983C86.018 87.9983 86.6807 87.3355 86.6807 86.5171C86.6807 81.4713 86.037 71.8608 81.718 64.1918C81.3165 63.4788 80.4133 63.2227 79.7003 63.6277C78.9874 64.0291 78.7348 64.9324 79.1362 65.6453C82.0485 70.8156 83.7183 78.4241 83.7183 86.5171Z" fill="black"/>
<path fill-rule="evenodd" clip-rule="evenodd" d="M82.61 67.0053C82.7346 67.0382 82.861 67.0538 82.9873 67.0538C83.2763 67.0538 83.5635 66.969 83.8092 66.8046C84.1622 66.5693 84.3975 66.1955 84.4546 65.775L85.0585 61.4041C85.1606 60.667 84.7003 59.9696 83.984 59.7724L73.1847 56.81C72.7763 56.701 72.342 56.765 71.9873 56.9951C71.6343 57.2235 71.3937 57.5921 71.328 58.0091L70.6255 62.4787C70.5078 63.2297 70.9767 63.9478 71.7121 64.1416L82.61 67.0053ZM81.7483 63.7142L73.7609 61.6152L73.998 60.1063L81.9456 62.2866L81.7483 63.7142Z" fill="#F15A2A"/>
<path d="M52.098 11.2872C50.2206 11.2872 48.3933 11.1704 46.63 10.9368C45.8185 10.8296 45.2475 10.0846 45.3547 9.27309C45.462 8.46327 46.2078 7.89224 47.0176 7.99866C50.3002 8.43385 53.8249 8.43212 57.4985 7.99607C58.2997 7.8983 59.0489 8.48057 59.1441 9.29298C59.241 10.1063 58.6596 10.8425 57.8481 10.9394C55.891 11.1713 53.9703 11.2872 52.098 11.2872Z" fill="#F15A2A"/>
<path d="M52.2488 13.3109C51.4303 13.3109 50.7676 12.6473 50.7676 11.8288V7.8611C50.7676 7.04263 51.4303 6.37903 52.2488 6.37903C53.0673 6.37903 53.73 7.04263 53.73 7.8611V11.8289C53.73 12.6473 53.0673 13.3109 52.2488 13.3109Z" fill="#F15A2A"/>
<path d="M81.0297 57.862C80.649 57.862 80.27 57.7167 79.9811 57.4277C79.4031 56.848 79.4048 55.9102 79.9828 55.3322L96.809 38.5545C98.3248 36.9902 101.92 31.5249 102.41 29.4242C100.311 29.9156 94.8433 33.5131 93.26 35.0436L73.5908 54.7145C73.0094 55.2959 72.0732 55.2959 71.4953 54.7145C70.9156 54.1365 70.9156 53.1987 71.4953 52.6207L91.1835 32.9308C91.2995 32.8183 101.663 24.0306 104.731 27.1055C107.807 30.183 99.0152 40.5367 98.92 40.6344L82.0765 57.4294C81.7858 57.7184 81.4086 57.862 81.0297 57.862Z" fill="black"/>
<path d="M98.4587 66.0986C98.393 66.0986 98.3272 66.0952 98.2615 66.0865C97.8064 66.0242 97.4049 65.756 97.1748 65.358L87.7823 49.0839C87.3739 48.3744 87.6162 47.4694 88.3256 47.0593C89.0351 46.6544 89.9401 46.8949 90.3502 47.6027L98.7823 62.2139L100.914 60.1081L93.5341 43.1071C93.207 42.3561 93.5514 41.484 94.3023 41.1579C95.0516 40.836 95.9254 41.1752 96.2508 41.927L104.036 59.8589C104.28 60.4195 104.153 61.0736 103.719 61.5027L99.5004 65.6712C99.2218 65.9481 98.8463 66.0986 98.4587 66.0986Z" fill="black"/>
<path fill-rule="evenodd" clip-rule="evenodd" d="M88.7302 38.2517C88.9205 38.3348 89.1195 38.3737 89.3168 38.3737C89.8895 38.3737 90.4346 38.0389 90.6769 37.4791C91.0022 36.7272 90.6561 35.8551 89.9034 35.5316L73.7296 28.5503C72.9872 28.2268 72.1082 28.5711 71.7829 29.323C71.4576 30.0748 71.8037 30.9469 72.5564 31.2705L88.7302 38.2517ZM82.75 44.0519C82.9836 44.1852 83.238 44.2492 83.4889 44.2492C84.0011 44.2492 84.4994 43.9844 84.7745 43.5086C85.1829 42.7991 84.9407 41.8933 84.2312 41.4849L72.4768 34.7044C71.7673 34.2952 70.8623 34.5392 70.4522 35.2469C70.0439 35.9564 70.2861 36.8622 70.9956 37.2706L82.75 44.0519Z" fill="black"/>
<path d="M73.5455 54.1971C73.3482 54.1971 73.1492 54.1573 72.9571 54.0743L70.1487 52.8595L69.3545 53.6278C68.7644 54.1971 67.8283 54.1815 67.259 53.5949C66.6897 53.0066 66.7053 52.0687 67.2919 51.4995L68.7973 50.0425C69.2282 49.6237 69.865 49.5095 70.4169 49.7466L74.1338 51.3541C74.8848 51.6794 75.2308 52.5515 74.9055 53.3025C74.6633 53.8614 74.1182 54.1971 73.5455 54.1971Z" fill="black"/>
<path d="M76.4586 56.8065C76.0727 56.8065 75.6868 56.6577 75.3961 56.3583C74.8251 55.7718 74.8389 54.8339 75.4255 54.2629L77.2338 52.5048C77.8186 51.9338 78.7582 51.9459 79.3293 52.5342C79.9003 53.1208 79.8864 54.0587 79.2998 54.6297L77.4916 56.3878C77.2044 56.6681 76.8306 56.8065 76.4586 56.8065Z" fill="black"/>
</svg>
