<svg width="133" height="88" viewBox="0 0 133 88" fill="none" xmlns="http://www.w3.org/2000/svg">
<rect x="17" width="44" height="44" rx="8" fill="#F7D7CD"/>
<rect y="69" width="12" height="12" rx="2" fill="#F7D7CD"/>
<path fill-rule="evenodd" clip-rule="evenodd" d="M115.827 16.4563H126.17C129.364 16.4563 132.102 19.0419 132.102 22.3881V82.01C132.102 85.204 129.516 87.9418 126.17 87.9418H40.6915C37.4975 87.9418 34.7598 85.3561 34.7598 82.01V22.3881C34.7598 19.194 37.3454 16.4563 40.6915 16.4563H51.0341H54.0761H57.7264H60.7683H106.093H109.135H112.785H115.827ZM126.17 84.8998C127.691 84.8998 129.06 83.6831 129.06 82.01V22.3881C129.06 20.8671 127.843 19.4982 126.17 19.4982H40.6915C39.1706 19.4982 37.8017 20.715 37.8017 22.3881V82.01C37.8017 83.531 39.0185 84.8998 40.6915 84.8998H126.17Z" fill="black"/>
<path fill-rule="evenodd" clip-rule="evenodd" d="M43.5815 23.7569H123.28C124.041 23.7569 124.801 24.5174 124.649 25.2779V78.9681C124.649 79.8807 124.041 80.489 123.128 80.489H43.5815C42.6689 80.489 42.0605 79.8807 42.0605 78.9681V25.2779C42.0605 24.3653 42.6689 23.7569 43.5815 23.7569ZM45.1025 77.4471H121.607V26.7989H45.1025V77.4471Z" fill="black"/>
<path d="M52.8589 62.0853H78.259C79.1716 62.0853 79.78 61.4769 79.78 60.5644C79.78 59.6518 79.1716 59.0434 78.259 59.0434H52.8589C51.9463 59.0434 51.3379 59.6518 51.3379 60.5644C51.3379 61.4769 51.9463 62.0853 52.8589 62.0853Z" fill="black"/>
<path d="M88.7534 61.629H114.154C115.066 61.629 115.675 61.0206 115.675 60.1081C115.675 59.1955 115.066 58.5871 114.154 58.5871H88.7534C87.8408 58.5871 87.2324 59.1955 87.2324 60.1081C87.2324 61.0206 87.8408 61.629 88.7534 61.629Z" fill="black"/>
<path d="M88.7534 69.9944H114.154C115.066 69.9944 115.675 69.386 115.675 68.4734C115.675 67.5608 115.066 66.9524 114.154 66.9524H88.7534C87.8408 66.9524 87.2324 67.5608 87.2324 68.4734C87.2324 69.386 87.8408 69.9944 88.7534 69.9944Z" fill="black"/>
<path d="M52.8589 70.4507H78.259C79.1716 70.4507 79.78 69.8423 79.78 68.9297C79.78 68.0171 79.1716 67.4087 78.259 67.4087H52.8589C51.9463 67.4087 51.3379 68.0171 51.3379 68.9297C51.3379 69.8423 51.9463 70.4507 52.8589 70.4507Z" fill="black"/>
<path fill-rule="evenodd" clip-rule="evenodd" d="M74.5279 37.452C76.6509 36.5964 79.0908 37.2302 80.485 39.0363C80.9603 39.6384 81.1188 40.4305 80.897 41.1593C80.7068 41.9198 80.1999 42.5219 79.4711 42.8071L59.6985 50.9189C59.0964 51.1407 58.4944 51.2674 57.8923 51.2674C56.403 51.2674 54.9771 50.5703 54.0582 49.3029L51.048 45.1519C50.8895 44.9618 50.8579 44.7083 50.9212 44.4865C50.9846 44.2647 51.143 44.0745 51.3648 43.9795L54.4068 42.7754C54.6286 42.6803 54.8821 42.6803 55.0722 42.8071L57.7339 44.328L62.7721 42.2684L57.6071 37.3252C57.417 37.1351 57.322 36.8816 57.3853 36.6281C57.4487 36.3746 57.6071 36.1528 57.8606 36.0578L61.5997 34.5368C61.8215 34.4417 62.075 34.4734 62.2651 34.5685L70.5987 39.0363L74.5279 37.452ZM78.869 41.3812C79.1542 41.2861 79.3443 41.0643 79.4077 40.7791C79.5027 40.4939 79.4394 40.2087 79.2493 39.9869C78.267 38.7195 76.5559 38.2758 75.0983 38.8779L70.8522 40.6207C70.6304 40.7157 70.3769 40.684 70.1868 40.589L61.8532 36.0895L59.5717 37.0401L64.6733 41.9198C64.8634 42.11 64.9585 42.3634 64.8951 42.6169C64.8317 42.8704 64.6733 43.0922 64.4198 43.1873L57.924 45.849C57.7022 45.9441 57.4487 45.9441 57.2586 45.8173L54.6286 44.2963L52.8541 45.0251L55.294 48.3839C56.1812 49.588 57.7656 50.0317 59.1281 49.4613L78.869 41.3812Z" fill="#F15A2A"/>
<path d="M80.485 39.0363L80.0892 39.3419L80.0926 39.3461L80.485 39.0363ZM74.5279 37.452L74.341 36.9882L74.3409 36.9883L74.5279 37.452ZM80.897 41.1593L80.4186 41.0138L80.415 41.0258L80.4119 41.0381L80.897 41.1593ZM79.4711 42.8071L79.2888 42.3414L79.2813 42.3445L79.4711 42.8071ZM59.6985 50.9189L59.8713 51.3881L59.8799 51.3849L59.8883 51.3815L59.6985 50.9189ZM54.0582 49.3029L54.463 49.0094L54.463 49.0093L54.0582 49.3029ZM51.048 45.1519L51.4527 44.8584L51.4429 44.8447L51.4321 44.8318L51.048 45.1519ZM50.9212 44.4865L50.4405 44.3491L50.9212 44.4865ZM51.3648 43.9795L51.1807 43.5144L51.1679 43.5199L51.3648 43.9795ZM54.4068 42.7754L54.5909 43.2405L54.6037 43.2349L54.4068 42.7754ZM55.0722 42.8071L54.7949 43.2231L54.8092 43.2326L54.8241 43.2412L55.0722 42.8071ZM57.7339 44.328L57.4858 44.7621L57.6975 44.8831L57.9231 44.7908L57.7339 44.328ZM62.7721 42.2684L62.9613 42.7312L63.6743 42.4397L63.1178 41.9072L62.7721 42.2684ZM57.6071 37.3252L57.2535 37.6789L57.2614 37.6865L57.6071 37.3252ZM57.3853 36.6281L57.8704 36.7494L57.8704 36.7494L57.3853 36.6281ZM57.8606 36.0578L58.0363 36.5261L58.049 36.5209L57.8606 36.0578ZM61.5997 34.5368L61.7881 35L61.7966 34.9964L61.5997 34.5368ZM62.2651 34.5685L62.5014 34.1278L62.4951 34.1245L62.4887 34.1213L62.2651 34.5685ZM70.5987 39.0363L70.3625 39.477L70.5687 39.5876L70.7857 39.5L70.5987 39.0363ZM79.4077 40.7791L78.9333 40.621L78.9252 40.6455L78.9196 40.6706L79.4077 40.7791ZM78.869 41.3812L78.7109 40.9068L78.6951 40.9121L78.6796 40.9184L78.869 41.3812ZM79.2493 39.9869L78.854 40.2932L78.8616 40.303L78.8696 40.3123L79.2493 39.9869ZM75.0983 38.8779L75.2881 39.3404L75.2892 39.34L75.0983 38.8779ZM70.8522 40.6207L70.6624 40.1581L70.6553 40.1611L70.8522 40.6207ZM70.1868 40.589L69.9493 41.0289L69.9562 41.0327L69.9632 41.0362L70.1868 40.589ZM61.8532 36.0895L62.0907 35.6495L61.8809 35.5362L61.6609 35.6279L61.8532 36.0895ZM59.5717 37.0401L59.3794 36.5785L58.6734 36.8727L59.2261 37.4014L59.5717 37.0401ZM64.6733 41.9198L65.027 41.5662L65.0189 41.5585L64.6733 41.9198ZM64.8951 42.6169L65.3802 42.7382L65.3802 42.7382L64.8951 42.6169ZM64.4198 43.1873L64.2443 42.7191L64.2372 42.7218L64.2302 42.7246L64.4198 43.1873ZM57.924 45.849L57.7344 45.3863L57.7271 45.3894L57.924 45.849ZM57.2586 45.8173L57.5359 45.4013L57.5227 45.3925L57.5089 45.3845L57.2586 45.8173ZM54.6286 44.2963L54.8789 43.8635L54.6661 43.7404L54.4386 43.8338L54.6286 44.2963ZM52.8541 45.0251L52.6642 44.5626L52.0757 44.8043L52.4496 45.319L52.8541 45.0251ZM55.294 48.3839L54.8895 48.6778L54.8915 48.6805L55.294 48.3839ZM59.1281 49.4613L58.9387 48.9985L58.935 49.0001L59.1281 49.4613ZM80.8808 38.7308C79.3462 36.7428 76.6664 36.0511 74.341 36.9882L74.7148 37.9157C76.6355 37.1417 78.8354 37.7176 80.0892 39.3419L80.8808 38.7308ZM81.3753 41.3049C81.6463 40.4146 81.4511 39.4531 80.8775 38.7265L80.0926 39.3461C80.4696 39.8237 80.5913 40.4465 80.4186 41.0138L81.3753 41.3049ZM79.6533 43.2727C80.5408 42.9254 81.1548 42.1896 81.382 41.2806L80.4119 41.0381C80.2589 41.6501 79.8589 42.1184 79.2889 42.3414L79.6533 43.2727ZM59.8883 51.3815L79.6608 43.2696L79.2813 42.3445L59.5087 50.4563L59.8883 51.3815ZM57.8923 51.7674C58.5652 51.7674 59.2262 51.6257 59.8713 51.3881L59.5256 50.4497C58.9667 50.6557 58.4236 50.7674 57.8923 50.7674V51.7674ZM53.6534 49.5963C54.6678 50.9955 56.2453 51.7674 57.8923 51.7674V50.7674C56.5608 50.7674 55.2865 50.1451 54.463 49.0094L53.6534 49.5963ZM50.6432 45.4454L53.6535 49.5964L54.463 49.0093L51.4527 44.8584L50.6432 45.4454ZM50.4405 44.3491C50.3397 44.7019 50.3821 45.1338 50.6639 45.472L51.4321 44.8318C51.397 44.7897 51.376 44.7147 51.402 44.6238L50.4405 44.3491ZM51.1679 43.5199C50.8013 43.677 50.5432 43.9897 50.4405 44.3491L51.402 44.6238C51.426 44.5397 51.4848 44.4721 51.5618 44.439L51.1679 43.5199ZM54.2228 42.3105L51.1808 43.5146L51.5489 44.4444L54.5908 43.2403L54.2228 42.3105ZM55.3496 42.391C54.9847 42.1478 54.5451 42.1721 54.2098 42.3158L54.6037 43.2349C54.6528 43.2139 54.6987 43.2065 54.7341 43.2077C54.7685 43.2089 54.7867 43.2176 54.7949 43.2231L55.3496 42.391ZM57.982 43.8939L55.3203 42.3729L54.8241 43.2412L57.4858 44.7621L57.982 43.8939ZM62.5829 41.8056L57.5447 43.8652L57.9231 44.7908L62.9613 42.7312L62.5829 41.8056ZM57.2614 37.6865L62.4264 42.6296L63.1178 41.9072L57.9529 36.964L57.2614 37.6865ZM56.9003 36.5069C56.7852 36.9673 56.9685 37.3937 57.2536 37.6788L57.9607 36.9717C57.8656 36.8766 57.8588 36.796 57.8704 36.7494L56.9003 36.5069ZM57.6851 35.5896C57.2417 35.7559 56.9932 36.1351 56.9003 36.5069L57.8704 36.7494C57.9042 36.6141 57.9726 36.5498 58.0362 36.5259L57.6851 35.5896ZM61.4113 34.0737L57.6722 35.5946L58.049 36.5209L61.7881 34.9999L61.4113 34.0737ZM62.4887 34.1213C62.1941 33.974 61.7852 33.9133 61.4027 34.0772L61.7966 34.9964C61.8253 34.9841 61.8633 34.9769 61.9099 34.9802C61.9573 34.9834 62.0041 34.997 62.0415 35.0157L62.4887 34.1213ZM70.835 38.5957L62.5014 34.1278L62.0289 35.0091L70.3625 39.477L70.835 38.5957ZM74.3409 36.9883L70.4118 38.5726L70.7857 39.5L74.7149 37.9157L74.3409 36.9883ZM78.9196 40.6706C78.8927 40.7916 78.8225 40.8696 78.7109 40.9068L79.0271 41.8555C79.4858 41.7026 79.7959 41.337 79.8958 40.8876L78.9196 40.6706ZM78.8696 40.3123C78.9503 40.4064 78.9706 40.5093 78.9333 40.621L79.882 40.9372C80.0349 40.4785 79.9285 40.0111 79.6289 39.6615L78.8696 40.3123ZM75.2892 39.34C76.5393 38.8236 78.0102 39.2044 78.854 40.2932L79.6445 39.6806C78.5237 38.2345 76.5724 37.728 74.9074 38.4158L75.2892 39.34ZM71.0421 41.0832L75.2881 39.3404L74.9084 38.4153L70.6624 40.1581L71.0421 41.0832ZM69.9632 41.0362C70.2578 41.1835 70.6667 41.2442 71.0492 41.0802L70.6553 40.1611C70.6267 40.1734 70.5886 40.1805 70.542 40.1773C70.4946 40.174 70.4479 40.1605 70.4104 40.1418L69.9632 41.0362ZM61.6156 36.5294L69.9493 41.0289L70.4244 40.149L62.0907 35.6495L61.6156 36.5294ZM59.764 37.5016L62.0455 36.551L61.6609 35.6279L59.3794 36.5785L59.764 37.5016ZM65.0189 41.5585L59.9173 36.6787L59.2261 37.4014L64.3277 42.2811L65.0189 41.5585ZM65.3802 42.7382C65.4953 42.2778 65.312 41.8514 65.0269 41.5663L64.3198 42.2734C64.4149 42.3685 64.4217 42.4491 64.41 42.4957L65.3802 42.7382ZM64.5954 43.6555C65.0387 43.4892 65.2873 43.1099 65.3802 42.7382L64.41 42.4957C64.3762 42.6309 64.3079 42.6953 64.2443 42.7191L64.5954 43.6555ZM58.1136 46.3117L64.6094 43.65L64.2302 42.7246L57.7344 45.3863L58.1136 46.3117ZM56.9812 46.2333C57.346 46.4765 57.7857 46.4522 58.121 46.3086L57.7271 45.3894C57.678 45.4104 57.6321 45.4178 57.5967 45.4166C57.5623 45.4154 57.5441 45.4067 57.5359 45.4013L56.9812 46.2333ZM54.3783 44.7292L57.0083 46.2501L57.5089 45.3845L54.8789 43.8635L54.3783 44.7292ZM53.0441 45.4876L54.8185 44.7589L54.4386 43.8338L52.6642 44.5626L53.0441 45.4876ZM55.6985 48.0901L53.2587 44.7313L52.4496 45.319L54.8895 48.6778L55.6985 48.0901ZM58.935 49.0001C57.7884 49.4801 56.449 49.1085 55.6965 48.0873L54.8915 48.6805C55.9135 50.0676 57.7428 50.5832 59.3212 49.9225L58.935 49.0001ZM78.6796 40.9184L58.9387 48.9986L59.3175 49.924L79.0584 41.8439L78.6796 40.9184Z" fill="#FF4C03"/>
<path fill-rule="evenodd" clip-rule="evenodd" d="M111.184 46.7805C113.291 47.6767 114.568 49.8501 114.276 52.1131C114.187 52.8749 113.739 53.5471 113.067 53.9056C112.394 54.3089 111.61 54.3761 110.893 54.0624L91.1759 45.817C90.5933 45.5482 90.078 45.2121 89.6523 44.7864C88.5992 43.7333 88.0839 42.2321 88.3303 40.6861L89.1369 35.6223C89.1593 35.3758 89.3162 35.1742 89.5178 35.0622C89.7195 34.9501 89.966 34.9277 90.19 35.0173L93.1924 36.3169C93.4165 36.4065 93.5957 36.5858 93.6405 36.8098L94.4472 39.7674L99.4661 41.8736L99.3093 34.7261C99.3093 34.4572 99.4213 34.2107 99.6453 34.0763C99.8694 33.9419 100.138 33.8971 100.385 34.0091L104.104 35.5775C104.328 35.6671 104.485 35.8688 104.552 36.0704L107.286 45.1224L111.184 46.7805ZM111.476 52.6284C111.745 52.7629 112.036 52.7405 112.282 52.5836C112.551 52.4492 112.708 52.2027 112.73 51.9115C112.932 50.3206 112.036 48.797 110.579 48.1921L106.345 46.422C106.121 46.3324 105.964 46.1307 105.897 45.9291L103.185 36.8546L100.9 35.9136L101.057 42.9715C101.057 43.2403 100.945 43.4868 100.721 43.6212C100.497 43.7557 100.228 43.8005 99.9814 43.6885L93.5061 40.9773C93.282 40.8877 93.1028 40.7085 93.058 40.4844L92.2738 37.5492L90.5037 36.8098L89.8539 40.9101C89.6299 42.3889 90.4365 43.8229 91.8033 44.383L111.476 52.6284Z" fill="#F15A2A"/>
<path d="M114.276 52.1131L113.781 52.0493L113.78 52.0547L114.276 52.1131ZM111.184 46.7805L111.38 46.3204L111.38 46.3204L111.184 46.7805ZM113.067 53.9056L112.831 53.4644L112.82 53.4703L112.809 53.4768L113.067 53.9056ZM110.893 54.0624L111.094 53.6043L111.086 53.6011L110.893 54.0624ZM91.1759 45.817L90.9664 46.271L90.9746 46.2748L90.983 46.2783L91.1759 45.817ZM88.3303 40.6861L88.8241 40.7648L88.8241 40.7647L88.3303 40.6861ZM89.1369 35.6223L89.6307 35.701L89.6334 35.6843L89.6349 35.6676L89.1369 35.6223ZM89.5178 35.0622L89.275 34.6251L89.5178 35.0622ZM90.19 35.0173L90.3887 34.5583L90.3757 34.5531L90.19 35.0173ZM93.1924 36.3169L92.9937 36.7759L93.0067 36.7811L93.1924 36.3169ZM93.6405 36.8098L93.1503 36.9079L93.1536 36.9248L93.1582 36.9414L93.6405 36.8098ZM94.4472 39.7674L93.9648 39.899L94.0289 40.1341L94.2537 40.2285L94.4472 39.7674ZM99.4661 41.8736L99.2726 42.3346L99.9829 42.6327L99.966 41.8626L99.4661 41.8736ZM99.3093 34.7261L98.8091 34.7261L98.8094 34.737L99.3093 34.7261ZM99.6453 34.0763L99.9026 34.505L99.9026 34.505L99.6453 34.0763ZM100.385 34.0091L100.178 34.4644L100.19 34.4698L100.385 34.0091ZM104.104 35.5775L103.91 36.0383L103.918 36.0417L104.104 35.5775ZM104.552 36.0704L105.031 35.9259L105.029 35.9191L105.027 35.9123L104.552 36.0704ZM107.286 45.1224L106.807 45.267L106.875 45.491L107.09 45.5826L107.286 45.1224ZM112.282 52.5836L112.059 52.1364L112.036 52.148L112.014 52.1618L112.282 52.5836ZM111.476 52.6284L111.699 52.1812L111.684 52.1738L111.669 52.1673L111.476 52.6284ZM112.73 51.9115L112.234 51.8486L112.233 51.8608L112.232 51.8731L112.73 51.9115ZM110.579 48.1921L110.387 48.6534L110.388 48.6538L110.579 48.1921ZM106.345 46.422L106.538 45.9606L106.53 45.9578L106.345 46.422ZM105.897 45.9291L105.418 46.0722L105.42 46.0797L105.422 46.0872L105.897 45.9291ZM103.185 36.8546L103.665 36.7115L103.596 36.4831L103.376 36.3923L103.185 36.8546ZM100.9 35.9136L101.09 35.4512L100.383 35.16L100.4 35.9247L100.9 35.9136ZM101.057 42.9715L101.557 42.9715L101.557 42.9604L101.057 42.9715ZM100.721 43.6212L100.978 44.05L100.978 44.05L100.721 43.6212ZM99.9814 43.6885L100.188 43.2333L100.181 43.2302L100.175 43.2273L99.9814 43.6885ZM93.5061 40.9773L93.6992 40.5161L93.6918 40.5131L93.5061 40.9773ZM93.058 40.4844L93.5483 40.3863L93.5452 40.3707L93.541 40.3553L93.058 40.4844ZM92.2738 37.5492L92.7568 37.4202L92.6934 37.1826L92.4665 37.0879L92.2738 37.5492ZM90.5037 36.8098L90.6964 36.3485L90.1094 36.1033L90.0099 36.7316L90.5037 36.8098ZM89.8539 40.9101L89.3601 40.8319L89.3596 40.8352L89.8539 40.9101ZM91.8033 44.383L91.9965 43.9219L91.9929 43.9204L91.8033 44.383ZM114.772 52.1769C115.093 49.6861 113.687 47.3021 111.38 46.3204L110.989 47.2406C112.894 48.0514 114.042 50.0141 113.781 52.0493L114.772 52.1769ZM113.302 54.3468C114.123 53.9088 114.665 53.0909 114.773 52.1715L113.78 52.0547C113.709 52.6589 113.354 53.1854 112.831 53.4644L113.302 54.3468ZM110.693 54.5205C111.566 54.9025 112.52 54.8164 113.324 54.3343L112.809 53.4768C112.268 53.8014 111.654 53.8497 111.094 53.6043L110.693 54.5205ZM90.983 46.2783L110.7 54.5237L111.086 53.6011L91.3688 45.3557L90.983 46.2783ZM89.2987 45.1399C89.7745 45.6157 90.3421 45.9829 90.9664 46.271L91.3854 45.363C90.8445 45.1134 90.3815 44.8085 90.0058 44.4328L89.2987 45.1399ZM87.8366 40.6073C87.5645 42.314 88.1341 43.9753 89.2987 45.1399L90.0058 44.4328C89.0643 43.4913 88.6032 42.1501 88.8241 40.7648L87.8366 40.6073ZM88.6432 35.5437L87.8366 40.6074L88.8241 40.7647L89.6307 35.701L88.6432 35.5437ZM89.275 34.6251C88.9543 34.8032 88.6788 35.1387 88.639 35.577L89.6349 35.6676C89.6398 35.613 89.6781 35.5451 89.7607 35.4992L89.275 34.6251ZM90.3757 34.5531C90.0054 34.405 89.6018 34.4435 89.275 34.6251L89.7607 35.4992C89.8372 35.4567 89.9265 35.4505 90.0043 35.4816L90.3757 34.5531ZM93.391 35.858L90.3886 34.5585L89.9914 35.4762L92.9938 36.7758L93.391 35.858ZM94.1308 36.7118C94.0448 36.2818 93.7168 35.9881 93.3781 35.8527L93.0067 36.7811C93.0562 36.8009 93.094 36.8282 93.1182 36.8541C93.1416 36.8793 93.1483 36.8983 93.1503 36.9079L94.1308 36.7118ZM94.9295 39.6359L94.1229 36.6783L93.1582 36.9414L93.9648 39.899L94.9295 39.6359ZM99.6596 41.4125L94.6406 39.3064L94.2537 40.2285L99.2726 42.3346L99.6596 41.4125ZM98.8094 34.737L98.9662 41.8845L99.966 41.8626L99.8091 34.7151L98.8094 34.737ZM99.3881 33.6476C98.9811 33.8917 98.8093 34.3228 98.8093 34.7261L99.8093 34.7261C99.8093 34.5916 99.8614 34.5297 99.9026 34.505L99.3881 33.6476ZM100.592 33.5539C100.161 33.358 99.7166 33.4504 99.3881 33.6476L99.9026 34.505C100.022 34.4333 100.116 34.4361 100.178 34.4643L100.592 33.5539ZM104.298 35.1168L100.579 33.5484L100.19 34.4698L103.91 36.0382L104.298 35.1168ZM105.027 35.9123C104.922 35.5998 104.676 35.2678 104.29 35.1133L103.918 36.0417C103.947 36.0533 103.979 36.0751 104.01 36.1103C104.041 36.1462 104.065 36.1888 104.078 36.2285L105.027 35.9123ZM107.764 44.9779L105.031 35.9259L104.074 36.215L106.807 45.267L107.764 44.9779ZM111.38 46.3204L107.481 44.6623L107.09 45.5826L110.989 47.2406L111.38 46.3204ZM112.014 52.1618C111.909 52.2283 111.805 52.2339 111.699 52.1812L111.252 53.0757C111.685 53.2919 112.162 53.2526 112.551 53.0055L112.014 52.1618ZM112.232 51.8731C112.222 51.9967 112.164 52.0838 112.059 52.1364L112.506 53.0308C112.938 52.8146 113.194 52.4088 113.229 51.9498L112.232 51.8731ZM110.388 48.6538C111.637 49.1727 112.408 50.482 112.234 51.8486L113.226 51.9743C113.457 50.1593 112.435 48.4214 110.771 47.7303L110.388 48.6538ZM106.152 46.8833L110.387 48.6534L110.772 47.7307L106.538 45.9607L106.152 46.8833ZM105.422 46.0872C105.526 46.3997 105.773 46.7317 106.159 46.8862L106.53 45.9578C106.502 45.9462 106.47 45.9243 106.439 45.8891C106.408 45.8533 106.384 45.8107 106.371 45.7709L105.422 46.0872ZM102.706 36.9978L105.418 46.0722L106.376 45.7859L103.665 36.7115L102.706 36.9978ZM100.71 36.3759L102.995 37.317L103.376 36.3923L101.09 35.4512L100.71 36.3759ZM101.557 42.9604L101.4 35.9025L100.4 35.9247L100.557 42.9826L101.557 42.9604ZM100.978 44.05C101.385 43.8058 101.557 43.3747 101.557 42.9715L100.557 42.9715C100.557 43.106 100.505 43.1678 100.464 43.1925L100.978 44.05ZM99.7745 44.1436C100.206 44.3396 100.65 44.2471 100.978 44.05L100.464 43.1925C100.344 43.2642 100.25 43.2614 100.188 43.2333L99.7745 44.1436ZM93.313 41.4385L99.7883 44.1497L100.175 43.2273L93.6992 40.5161L93.313 41.4385ZM92.5677 40.5825C92.6537 41.0124 92.9818 41.3061 93.3204 41.4416L93.6918 40.5131C93.6423 40.4933 93.6045 40.466 93.5804 40.4401C93.5569 40.415 93.5502 40.396 93.5483 40.3863L92.5677 40.5825ZM91.7907 37.6783L92.5749 40.6135L93.541 40.3553L92.7568 37.4202L91.7907 37.6783ZM90.311 37.2712L92.0811 38.0106L92.4665 37.0879L90.6964 36.3485L90.311 37.2712ZM90.3478 40.9884L90.9975 36.8881L90.0099 36.7316L89.3601 40.8319L90.3478 40.9884ZM91.9929 43.9204C90.8426 43.449 90.1583 42.2392 90.3483 40.985L89.3596 40.8352C89.1015 42.5387 90.0304 44.1968 91.6136 44.8457L91.9929 43.9204ZM111.669 52.1673L91.9965 43.9219L91.61 44.8442L111.282 53.0896L111.669 52.1673Z" fill="#FF4C03"/>
</svg>
