<svg width="104" height="87" viewBox="0 0 104 87" fill="none" xmlns="http://www.w3.org/2000/svg">
<ellipse cx="14.5" cy="16" rx="11.5" ry="16" fill="#F7D7CD"/>
<rect x="24.0645" y="59.3226" width="2.58065" height="2.58065" fill="black"/>
<path fill-rule="evenodd" clip-rule="evenodd" d="M9.16211 60.6129C9.16211 57.7624 11.4729 55.4516 14.3234 55.4516C17.1739 55.4516 19.4847 57.7624 19.4847 60.6129C19.4847 63.4634 17.1739 65.7742 14.3234 65.7742C11.4729 65.7742 9.16211 63.4634 9.16211 60.6129ZM11.7428 60.6129C11.7428 62.0382 12.8981 63.1935 14.3234 63.1935C15.7487 63.1935 16.904 62.0382 16.904 60.6129C16.904 59.1877 15.7487 58.0323 14.3234 58.0323C12.8981 58.0323 11.7428 59.1877 11.7428 60.6129Z" fill="black"/>
<rect x="77.3555" y="59.3226" width="2.58065" height="2.58065" fill="black"/>
<path fill-rule="evenodd" clip-rule="evenodd" d="M93.8382 60.6129C93.8382 63.4634 91.5274 65.7742 88.6769 65.7742C85.8264 65.7742 83.5156 63.4634 83.5156 60.6129C83.5156 57.7624 85.8264 55.4516 88.6769 55.4516C91.5274 55.4516 93.8382 57.7624 93.8382 60.6129ZM91.2576 60.6129C91.2576 59.1877 90.1022 58.0323 88.6769 58.0323C87.2517 58.0323 86.0963 59.1877 86.0963 60.6129C86.0963 62.0382 87.2517 63.1935 88.6769 63.1935C90.1022 63.1935 91.2576 62.0382 91.2576 60.6129Z" fill="black"/>
<path fill-rule="evenodd" clip-rule="evenodd" d="M101.026 9.02594L68.4516 14.1079L35.8774 9.02594C35.768 9.01687 35.6578 9.01687 35.5484 9.02594C35.4428 9.0176 35.3364 9.0176 35.2309 9.02594L2.32765 14.1592C1.55697 14.2775 1.00094 14.8042 1 15.4169V84.7164C0.999899 85.1018 1.22186 85.4669 1.60454 85.7106C1.98722 85.9544 2.4901 86.0511 2.97419 85.9741L35.5484 80.8921L68.1226 85.9741C68.3353 86.0083 68.5548 86.0083 68.7675 85.9741L101.671 80.8408C102.442 80.7231 102.999 80.1962 103 79.5831V10.2836C103 9.89819 102.778 9.53315 102.395 9.28936C102.013 9.04557 101.51 8.94886 101.026 9.02594ZM37 12L67 16.5595V36.8936L64.4367 36.9037L50 22.3602C49.6852 22.0413 49.1913 21.8536 48.6667 21.8536H42C41.4029 21.8536 40.8514 22.0964 40.5544 22.4901C40.2573 22.8837 40.2601 23.3681 40.5617 23.7597L50.705 36.9519L37 37V12ZM54.4189 37L60 36.979L47.8588 24H45L54.4189 37ZM34 59.6635H30.6667V62.2553H34V79.3362L4 84V16.6651L34 12V37.5922L29.6317 37.6077L25.1817 34.1348C24.8703 33.8878 24.4448 33.7478 24 33.746H17.3333C16.7432 33.7463 16.1972 33.9892 15.8978 34.3846C15.5985 34.7801 15.5904 35.2691 15.8767 35.6704L24.21 47.3333C24.5036 47.7449 25.0613 48.0004 25.6667 48.0006L34 47.9695V59.6635ZM65.3333 59.7695H67V48L37 48.1135V59.7695H38.6667V62.3499H37V79.3552L67 84V62.3499H65.3333V59.7695ZM26.3594 45L20 36H23.0832L27.4537 39.456C27.7739 39.6865 28.1876 39.8205 28.6215 39.834L53.0729 39.7453C53.086 39.7453 53.0982 39.7472 53.1105 39.7491C53.1228 39.7511 53.135 39.753 53.1481 39.753H53.1579L60.5494 39.7183L76.0636 39.6617H76.0865C77.5862 39.666 78.9926 40.5275 79.9131 41.4581H72.8316V43.479H81V44.7866L26.3594 45ZM70 62.2543V84L100 79.3349V12L70 16.6651V37.4596L76.605 37.4362H76.6467C81.2271 37.4397 84.9471 40.3141 84.98 43.8753L85 46.4748C85.0027 46.8187 84.8294 47.1493 84.5183 47.3938C84.2073 47.6383 83.784 47.7767 83.3417 47.7784L70 47.8289V59.6626H73.3333V62.2543H70Z" fill="black"/>
<path d="M68.4516 14.1079L68.4131 14.3549L68.4516 14.3609L68.4902 14.3549L68.4516 14.1079ZM101.026 9.02594L101.064 9.27295L101.065 9.27283L101.026 9.02594ZM35.8774 9.02594L35.916 8.77893L35.9071 8.77754L35.8981 8.77679L35.8774 9.02594ZM35.5484 9.02594L35.5287 9.27516L35.5489 9.27676L35.569 9.27508L35.5484 9.02594ZM35.2309 9.02594L35.2112 8.77672L35.2017 8.77746L35.1923 8.77893L35.2309 9.02594ZM2.32765 14.1592L2.36556 14.4063L2.36618 14.4062L2.32765 14.1592ZM1 15.4169L0.75 15.4165V15.4169H1ZM1 84.7164L1.25 84.7165V84.7164H1ZM2.97419 85.9741L2.93566 85.727L2.93488 85.7272L2.97419 85.9741ZM35.5484 80.8921L35.5869 80.6451L35.5484 80.6391L35.5098 80.6451L35.5484 80.8921ZM68.1226 85.9741L68.1623 85.7272L68.1611 85.727L68.1226 85.9741ZM68.7675 85.9741L68.7289 85.727L68.7278 85.7272L68.7675 85.9741ZM101.671 80.8408L101.633 80.5936L101.632 80.5938L101.671 80.8408ZM103 79.5831L103.25 79.5836V79.5831H103ZM103 10.2836L102.75 10.2835V10.2836H103ZM102.395 9.28936L102.261 9.50021L102.261 9.50021L102.395 9.28936ZM67 16.5595H67.25V16.3446L67.0376 16.3123L67 16.5595ZM37 12L37.0376 11.7528L36.75 11.7091V12H37ZM67 36.8936L67.001 37.1436L67.25 37.1426V36.8936H67ZM64.4367 36.9037L64.2592 37.0799L64.333 37.1542L64.4377 37.1537L64.4367 36.9037ZM50 22.3602L49.8221 22.5358L49.8226 22.5363L50 22.3602ZM42 21.8536L42 21.6036L42 21.6036L42 21.8536ZM40.5544 22.4901L40.7539 22.6407L40.7539 22.6407L40.5544 22.4901ZM40.5617 23.7597L40.7599 23.6073L40.7598 23.6072L40.5617 23.7597ZM50.705 36.9519L50.7059 37.2019L51.2112 37.2001L50.9032 36.7995L50.705 36.9519ZM37 37H36.75V37.2509L37.0009 37.25L37 37ZM60 36.979L60.0009 37.229L60.5742 37.2269L60.1826 36.8082L60 36.979ZM54.4189 37L54.2165 37.1467L54.2917 37.2505L54.4198 37.25L54.4189 37ZM47.8588 24L48.0414 23.8292L47.9673 23.75H47.8588V24ZM45 24V23.75H44.5101L44.7976 24.1467L45 24ZM30.6667 59.6635V59.4135H30.4167V59.6635H30.6667ZM34 59.6635V59.9135H34.25V59.6635H34ZM30.6667 62.2553H30.4167V62.5053H30.6667V62.2553ZM34 62.2553H34.25V62.0053H34V62.2553ZM34 79.3362L34.0384 79.5832L34.25 79.5503V79.3362H34ZM4 84H3.75V84.2919L4.0384 84.247L4 84ZM4 16.6651L3.96159 16.4181L3.75 16.451V16.6651H4ZM34 12H34.25V11.7081L33.9616 11.753L34 12ZM34 37.5922L34.0009 37.8422L34.25 37.8413V37.5922H34ZM29.6317 37.6077L29.4779 37.8048L29.5461 37.8581L29.6326 37.8577L29.6317 37.6077ZM25.1817 34.1348L25.0263 34.3307L25.0279 34.3319L25.1817 34.1348ZM24 33.746L24.001 33.496H24V33.746ZM17.3333 33.746L17.3333 33.496L17.3332 33.496L17.3333 33.746ZM15.8767 35.6704L15.6731 35.8156L15.6733 35.8158L15.8767 35.6704ZM24.21 47.3333L24.4135 47.1881L24.4134 47.1879L24.21 47.3333ZM25.6667 48.0006L25.6666 48.2507L25.6676 48.2506L25.6667 48.0006ZM34 47.9695H34.25V47.7186L33.9991 47.7195L34 47.9695ZM67 59.7695V60.0195H67.25V59.7695H67ZM65.3333 59.7695V59.5195H65.0833V59.7695H65.3333ZM67 48H67.25V47.7491L66.9991 47.75L67 48ZM37 48.1135L36.9991 47.8635L36.75 47.8645V48.1135H37ZM37 59.7695H36.75V60.0195H37V59.7695ZM38.6667 59.7695H38.9167V59.5195H38.6667V59.7695ZM38.6667 62.3499V62.5999H38.9167V62.3499H38.6667ZM37 62.3499V62.0999H36.75V62.3499H37ZM37 79.3552H36.75V79.5694L36.9617 79.6022L37 79.3552ZM67 84L66.9617 84.2471L67.25 84.2917V84H67ZM67 62.3499H67.25V62.0999H67V62.3499ZM65.3333 62.3499H65.0833V62.5999H65.3333V62.3499ZM20 36V35.75H19.5172L19.7958 36.1443L20 36ZM26.3594 45L26.1552 45.1443L26.2303 45.2505L26.3604 45.25L26.3594 45ZM23.0832 36L23.2383 35.8039L23.1701 35.75H23.0832V36ZM27.4537 39.456L27.2984 39.6523L27.3076 39.6589L27.4537 39.456ZM28.6215 39.834L28.6137 40.084L28.6224 40.084L28.6215 39.834ZM53.0729 39.7453V39.4953L53.072 39.4953L53.0729 39.7453ZM53.1105 39.7491L53.1494 39.5022L53.1493 39.5022L53.1105 39.7491ZM53.1579 39.753V40.003L53.1591 40.003L53.1579 39.753ZM60.5494 39.7183L60.5485 39.4683L60.5483 39.4683L60.5494 39.7183ZM76.0636 39.6617L76.0636 39.4117L76.0627 39.4117L76.0636 39.6617ZM76.0865 39.6617L76.0872 39.4117H76.0865V39.6617ZM79.9131 41.4581V41.7081H80.512L80.0909 41.2823L79.9131 41.4581ZM72.8316 41.4581V41.2081H72.5816V41.4581H72.8316ZM72.8316 43.479H72.5816V43.729H72.8316V43.479ZM81 43.479H81.25V43.229H81V43.479ZM81 44.7866L81.001 45.0366L81.25 45.0356V44.7866H81ZM70 84H69.75V84.2919L70.0384 84.247L70 84ZM70 62.2543V62.0043H69.75V62.2543H70ZM100 79.3349L100.038 79.582L100.25 79.5491V79.3349H100ZM100 12H100.25V11.7081L99.9616 11.753L100 12ZM70 16.6651L69.9616 16.418L69.75 16.4509V16.6651H70ZM70 37.4596H69.75V37.7104L70.0009 37.7096L70 37.4596ZM76.605 37.4362L76.605 37.1862L76.6041 37.1862L76.605 37.4362ZM76.6467 37.4362L76.6469 37.1862H76.6467V37.4362ZM84.98 43.8753L85.23 43.8734L85.23 43.873L84.98 43.8753ZM85 46.4748L84.75 46.4767L84.75 46.4767L85 46.4748ZM84.5183 47.3938L84.3638 47.1973L84.3638 47.1973L84.5183 47.3938ZM83.3417 47.7784L83.3426 48.0284L83.3426 48.0284L83.3417 47.7784ZM70 47.8289L69.9991 47.579L69.75 47.5799V47.8289H70ZM70 59.6626H69.75V59.9126H70V59.6626ZM73.3333 59.6626H73.5833V59.4126H73.3333V59.6626ZM73.3333 62.2543V62.5043H73.5833V62.2543H73.3333ZM68.4902 14.3549L101.064 9.27295L100.987 8.77893L68.4131 13.8609L68.4902 14.3549ZM35.8389 9.27295L68.4131 14.3549L68.4902 13.8609L35.916 8.77893L35.8389 9.27295ZM35.569 9.27508C35.6647 9.26716 35.7611 9.26716 35.8568 9.27508L35.8981 8.77679C35.775 8.76659 35.6508 8.76659 35.5277 8.77679L35.569 9.27508ZM35.2506 9.27516C35.343 9.26786 35.4362 9.26786 35.5287 9.27516L35.5681 8.77672C35.4494 8.76734 35.3299 8.76734 35.2112 8.77672L35.2506 9.27516ZM2.36618 14.4062L35.2694 9.27295L35.1923 8.77893L2.28911 13.9122L2.36618 14.4062ZM1.25 15.4173C1.25069 14.9701 1.66973 14.5131 2.36556 14.4063L2.28973 13.9121C1.44421 14.0419 0.751196 14.6383 0.75 15.4165L1.25 15.4173ZM1.25 84.7164V15.4169H0.75V84.7164H1.25ZM1.73886 85.4998C1.41336 85.2924 1.24993 85.0001 1.25 84.7165L0.75 84.7163C0.749873 85.2035 1.03036 85.6413 1.47022 85.9215L1.73886 85.4998ZM2.93488 85.7272C2.50586 85.7955 2.06569 85.708 1.73886 85.4998L1.47022 85.9215C1.90875 86.2009 2.47433 86.3068 3.0135 86.221L2.93488 85.7272ZM35.5098 80.6451L2.93566 85.727L3.01273 86.2211L35.5869 81.1391L35.5098 80.6451ZM68.1611 85.727L35.5869 80.6451L35.5098 81.1391L68.084 86.2211L68.1611 85.727ZM68.7278 85.7272C68.5413 85.7572 68.3487 85.7572 68.1623 85.7272L68.0829 86.2209C68.3219 86.2594 68.5682 86.2594 68.8072 86.2209L68.7278 85.7272ZM101.632 80.5938L68.7289 85.727L68.806 86.2211L101.709 81.0878L101.632 80.5938ZM102.75 79.5827C102.749 80.0302 102.329 80.4873 101.633 80.5936L101.708 81.0879C102.555 80.9588 103.249 80.3622 103.25 79.5836L102.75 79.5827ZM102.75 10.2836V79.5831H103.25V10.2836H102.75ZM102.261 9.50021C102.587 9.70757 102.75 9.99986 102.75 10.2835L103.25 10.2837C103.25 9.79652 102.97 9.35872 102.53 9.07851L102.261 9.50021ZM101.065 9.27283C101.494 9.20452 101.934 9.292 102.261 9.50021L102.53 9.07851C102.091 8.79914 101.526 8.6932 100.986 8.77905L101.065 9.27283ZM67.0376 16.3123L37.0376 11.7528L36.9624 12.2472L66.9624 16.8067L67.0376 16.3123ZM67.25 36.8936V16.5595H66.75V36.8936H67.25ZM64.4377 37.1537L67.001 37.1436L66.999 36.6436L64.4357 36.6537L64.4377 37.1537ZM49.8226 22.5363L64.2592 37.0799L64.6141 36.7276L50.1774 22.1841L49.8226 22.5363ZM48.6667 22.1036C49.1367 22.1036 49.5623 22.2726 49.8221 22.5358L50.1779 22.1846C49.8082 21.81 49.2458 21.6036 48.6667 21.6036V22.1036ZM42 22.1036H48.6667V21.6036H42V22.1036ZM40.7539 22.6407C40.9936 22.3231 41.4628 22.1036 42 22.1036L42 21.6036C41.3429 21.6036 40.7092 21.8698 40.3548 22.3395L40.7539 22.6407ZM40.7598 23.6072C40.5266 23.3044 40.5249 22.9442 40.7539 22.6407L40.3548 22.3395C39.9898 22.8233 39.9936 23.4317 40.3636 23.9122L40.7598 23.6072ZM50.9032 36.7995L40.7599 23.6073L40.3635 23.9121L50.5068 37.1043L50.9032 36.7995ZM37.0009 37.25L50.7059 37.2019L50.7041 36.7019L36.9991 36.75L37.0009 37.25ZM36.75 12V37H37.25V12H36.75ZM59.9991 36.729L54.418 36.75L54.4198 37.25L60.0009 37.229L59.9991 36.729ZM47.6763 24.1708L59.8174 37.1498L60.1826 36.8082L48.0414 23.8292L47.6763 24.1708ZM45 24.25H47.8588V23.75H45V24.25ZM54.6214 36.8533L45.2024 23.8533L44.7976 24.1467L54.2165 37.1467L54.6214 36.8533ZM30.6667 59.9135H34V59.4135H30.6667V59.9135ZM30.9167 62.2553V59.6635H30.4167V62.2553H30.9167ZM34 62.0053H30.6667V62.5053H34V62.0053ZM34.25 79.3362V62.2553H33.75V79.3362H34.25ZM4.0384 84.247L34.0384 79.5832L33.9616 79.0891L3.9616 83.753L4.0384 84.247ZM3.75 16.6651V84H4.25V16.6651H3.75ZM33.9616 11.753L3.96159 16.4181L4.03841 16.9122L34.0384 12.247L33.9616 11.753ZM34.25 37.5922V12H33.75V37.5922H34.25ZM29.6326 37.8577L34.0009 37.8422L33.9991 37.3422L29.6308 37.3577L29.6326 37.8577ZM25.0279 34.3319L29.4779 37.8048L29.7855 37.4107L25.3355 33.9377L25.0279 34.3319ZM23.999 33.996C24.3948 33.9976 24.7641 34.1227 25.0263 34.3307L25.337 33.9389C24.9765 33.6529 24.4948 33.498 24.001 33.496L23.999 33.996ZM17.3333 33.996H24V33.496H17.3333V33.996ZM16.0972 34.5355C16.34 34.2147 16.8048 33.9963 17.3334 33.996L17.3332 33.496C16.6815 33.4963 16.0543 33.7637 15.6985 34.2337L16.0972 34.5355ZM16.0802 35.5252C15.858 35.2137 15.8632 34.8446 16.0972 34.5355L15.6985 34.2337C15.3338 34.7156 15.3229 35.3245 15.6731 35.8156L16.0802 35.5252ZM24.4134 47.1879L16.0801 35.5251L15.6733 35.8158L24.0066 47.4786L24.4134 47.1879ZM25.6668 47.7506C25.124 47.7504 24.6507 47.5205 24.4135 47.1881L24.0065 47.4784C24.3566 47.9693 24.9985 48.2504 25.6666 48.2506L25.6668 47.7506ZM33.9991 47.7195L25.6657 47.7507L25.6676 48.2506L34.0009 48.2195L33.9991 47.7195ZM34.25 59.6635V47.9695H33.75V59.6635H34.25ZM67 59.5195H65.3333V60.0195H67V59.5195ZM66.75 48V59.7695H67.25V48H66.75ZM37.0009 48.3635L67.0009 48.25L66.9991 47.75L36.9991 47.8635L37.0009 48.3635ZM37.25 59.7695V48.1135H36.75V59.7695H37.25ZM38.6667 59.5195H37V60.0195H38.6667V59.5195ZM38.9167 62.3499V59.7695H38.4167V62.3499H38.9167ZM37 62.5999H38.6667V62.0999H37V62.5999ZM37.25 79.3552V62.3499H36.75V79.3552H37.25ZM67.0383 83.7529L37.0383 79.1081L36.9617 79.6022L66.9617 84.2471L67.0383 83.7529ZM66.75 62.3499V84H67.25V62.3499H66.75ZM65.3333 62.5999H67V62.0999H65.3333V62.5999ZM65.0833 59.7695V62.3499H65.5833V59.7695H65.0833ZM19.7958 36.1443L26.1552 45.1443L26.5636 44.8557L20.2042 35.8557L19.7958 36.1443ZM23.0832 35.75H20V36.25H23.0832V35.75ZM27.6087 39.2599L23.2383 35.8039L22.9281 36.1961L27.2986 39.6521L27.6087 39.2599ZM28.6293 39.5841C28.24 39.572 27.8755 39.4517 27.5997 39.2531L27.3076 39.6589C27.6722 39.9214 28.1353 40.069 28.6137 40.0839L28.6293 39.5841ZM53.072 39.4953L28.6206 39.584L28.6224 40.084L53.0738 39.9953L53.072 39.4953ZM53.1493 39.5022C53.1396 39.5006 53.1085 39.4953 53.0729 39.4953V39.9953C53.0672 39.9953 53.0635 39.9949 53.0632 39.9948C53.0631 39.9948 53.0635 39.9949 53.065 39.9951C53.0666 39.9953 53.0684 39.9956 53.0717 39.9961L53.1493 39.5022ZM53.1481 39.503C53.1538 39.503 53.1575 39.5034 53.1578 39.5035C53.1579 39.5035 53.1575 39.5034 53.156 39.5032C53.1544 39.503 53.1526 39.5027 53.1494 39.5022L53.0716 39.9961C53.0814 39.9976 53.1125 40.003 53.1481 40.003V39.503ZM53.1579 39.503H53.1481V40.003H53.1579V39.503ZM60.5483 39.4683L53.1568 39.503L53.1591 40.003L60.5506 39.9683L60.5483 39.4683ZM76.0627 39.4117L60.5485 39.4683L60.5504 39.9683L76.0645 39.9117L76.0627 39.4117ZM76.0865 39.4117H76.0636V39.9117H76.0865V39.4117ZM80.0909 41.2823C79.1437 40.3248 77.6774 39.4163 76.0872 39.4117L76.0858 39.9117C77.4949 39.9158 78.8415 40.7302 79.7354 41.6339L80.0909 41.2823ZM72.8316 41.7081H79.9131V41.2081H72.8316V41.7081ZM73.0816 43.479V41.4581H72.5816V43.479H73.0816ZM81 43.229H72.8316V43.729H81V43.229ZM81.25 44.7866V43.479H80.75V44.7866H81.25ZM26.3604 45.25L81.001 45.0366L80.999 44.5366L26.3584 44.75L26.3604 45.25ZM70.25 84V62.2543H69.75V84H70.25ZM99.9616 79.0879L69.9616 83.753L70.0384 84.247L100.038 79.582L99.9616 79.0879ZM99.75 12V79.3349H100.25V12H99.75ZM70.0384 16.9121L100.038 12.247L99.9616 11.753L69.9616 16.418L70.0384 16.9121ZM70.25 37.4596V16.6651H69.75V37.4596H70.25ZM76.6041 37.1862L69.9991 37.2096L70.0009 37.7096L76.6059 37.6862L76.6041 37.1862ZM76.6467 37.1862H76.605V37.6862H76.6467V37.1862ZM85.23 43.873C85.1953 40.1206 81.3031 37.1898 76.6469 37.1862L76.6465 37.6862C81.1511 37.6896 84.6988 40.5076 84.73 43.8776L85.23 43.873ZM85.25 46.4729L85.23 43.8734L84.73 43.8772L84.75 46.4767L85.25 46.4729ZM84.6728 47.5904C85.0344 47.3062 85.2533 46.9064 85.25 46.4728L84.75 46.4767C84.752 46.731 84.6244 46.9924 84.3638 47.1973L84.6728 47.5904ZM83.3426 48.0284C83.8337 48.0265 84.3128 47.8734 84.6728 47.5904L84.3638 47.1973C84.1017 47.4033 83.7343 47.5269 83.3407 47.5284L83.3426 48.0284ZM70.0009 48.0789L83.3426 48.0284L83.3407 47.5284L69.9991 47.579L70.0009 48.0789ZM70.25 59.6626V47.8289H69.75V59.6626H70.25ZM73.3333 59.4126H70V59.9126H73.3333V59.4126ZM73.5833 62.2543V59.6626H73.0833V62.2543H73.5833ZM70 62.5043H73.3333V62.0043H70V62.5043Z" fill="black"/>
<path fill-rule="evenodd" clip-rule="evenodd" d="M59.7417 60.6129C59.7417 64.8887 56.2755 68.3548 51.9997 68.3548C47.7258 68.3506 44.2621 64.8869 44.2578 60.6129C44.2578 56.3372 47.724 52.871 51.9997 52.871C56.2755 52.871 59.7417 56.3372 59.7417 60.6129ZM57.161 60.6129C57.161 57.7624 54.8503 55.4516 51.9997 55.4516C49.1492 55.4516 46.8385 57.7624 46.8385 60.6129C46.8385 63.4634 49.1492 65.7742 51.9997 65.7742C54.8503 65.7742 57.161 63.4634 57.161 60.6129Z" fill="#F15A2A"/>
<path d="M51.4226 61.7742L54.0032 63.0645L55.1567 60.7548L53.2896 59.8155V56.7419H50.709V60.6129C50.7063 61.1043 50.983 61.5546 51.4226 61.7742V61.7742Z" fill="#F15A2A"/>
<rect x="47.4512" y="41.2581" width="2.58065" height="2.58065" fill="#F15A2A"/>
<rect x="52.6133" y="41.2581" width="2.58065" height="2.58065" fill="#F15A2A"/>
<rect x="42.291" y="41.2581" width="2.58065" height="2.58065" fill="#F15A2A"/>
</svg>
