<svg width="60" height="57" viewBox="0 0 60 57" fill="none" xmlns="http://www.w3.org/2000/svg">
<circle cx="14.1447" cy="11.1455" r="10.2111" fill="#F7D7CD"/>
<rect x="60" y="32.4099" width="15.7377" height="14.7541" rx="3" transform="rotate(90 60 32.4099)" fill="#F7D7CD"/>
<path fill-rule="evenodd" clip-rule="evenodd" d="M3.42676 55.3011V24.7198C3.42676 24.5001 3.51262 24.2889 3.66634 24.1306L25.9403 1.19469C26.2773 0.8477 26.8375 0.8477 27.1745 1.19469L36.8377 11.1451V5.18183C36.8377 4.71268 37.2212 4.33236 37.6943 4.33236H45.4045C45.8777 4.33236 46.2612 4.71268 46.2612 5.18183V20.8487L49.4484 24.1306C49.6021 24.2889 49.688 24.5001 49.688 24.7198V55.3011H52.2581C53.4003 55.3011 53.4003 57 52.2581 57H0.856689C-0.285563 57 -0.285563 55.3011 0.856689 55.3011H3.42676ZM22.2739 55.3011H47.9746V25.0623L26.5574 3.0086L5.14014 25.0623V55.3011H10.2803V35.7631C10.2803 35.2939 10.6638 34.9136 11.137 34.9136H21.4172C21.8904 34.9136 22.2739 35.2939 22.2739 35.7631V55.3011ZM44.5479 19.0844V6.03131H38.551V12.9094L44.5479 19.0844ZM11.9937 55.3011H20.5606V36.6125H11.9937V55.3011ZM21.4172 25.5693V19.6248C21.4172 16.8105 23.7218 14.5261 26.5574 14.5261C29.3991 14.5261 31.6975 16.8028 31.6975 19.6248V25.5693C31.6975 26.0385 31.314 26.4188 30.8408 26.4188H22.2739C21.8008 26.4188 21.4172 26.0385 21.4172 25.5693ZM23.1306 24.7198H29.9841V19.6248C29.9841 17.7415 28.4532 16.2251 26.5574 16.2251C24.6679 16.2251 23.1306 17.7489 23.1306 19.6248V24.7198ZM29.1274 34.9136H41.9778C42.4509 34.9136 42.8345 35.2939 42.8345 35.7631V46.8063C42.8345 47.2754 42.4509 47.6558 41.9778 47.6558H29.1274C28.6543 47.6558 28.2708 47.2754 28.2708 46.8063V35.7631C28.2708 35.2939 28.6543 34.9136 29.1274 34.9136ZM29.9841 36.6125V45.9568H41.1211V36.6125H29.9841Z" fill="black"/>
</svg>
