<svg width="144" height="28" viewBox="0 0 144 28" fill="none" xmlns="http://www.w3.org/2000/svg">
<path d="M143.921 5.25439H139.219L135.091 10.5877L130.982 5.25439H126.301L132.543 14.0445L126.38 22.6766H131.121L135.13 17.5013L139.042 22.6766H143.842L137.659 14.0445L143.921 5.25439Z" fill="white"/>
<path d="M123.674 5.25439H118.993L114.864 10.5877L110.756 5.25439H106.074L112.316 14.0445L106.133 22.6766H110.894L114.884 17.5013L118.815 22.6766H123.615L117.432 14.0445L123.674 5.25439Z" fill="white"/>
<path d="M89.2051 5.15552V9.16539H99.2199V12.1679H92.4248V16.1777H99.2199V18.6666H89.2051V22.6765H103.23V5.15552H89.2051Z" fill="white"/>
<path d="M76.4845 18.6666V5.15552H72.4746V22.6765H86.4993V18.6666H76.4845Z" fill="white"/>
<path d="M69.7081 9.16539V5.15552H55.7031V22.6765H59.6932V16.1777H66.4883V12.1679H59.6932V9.16539H69.7081Z" fill="white"/>
<path d="M35.5954 22.6765H41.9954L45.8275 27.8321H35.5954H29.1954L25.3633 22.6765H35.5954Z" fill="white"/>
<path d="M38.103 11.3384L34.6067 16.4939H24.4141L27.8709 11.3384H38.103Z" fill="white"/>
<path d="M45.8272 0V0H35.5951H29.0371L25.5605 5.15556H35.5951H40.9284V5.15556H42.3309L45.8272 0V0Z" fill="white"/>
<path d="M10.2321 22.6765H3.67407H3.51605L0 27.8321H10.2321H16.8099L20.2667 22.6765H10.2321Z" fill="white"/>
<path d="M11.219 11.3384H14.5967H21.4313L17.9548 16.4939H14.5967H7.72266L11.219 11.3384Z" fill="white"/>
<path d="M10.2321 5.15556H3.8321L0 0H10.2321H16.6321L20.4642 5.15556H10.2321Z" fill="white"/>
</svg>
