<svg width="144" height="28" viewBox="0 0 144 28" fill="none" xmlns="http://www.w3.org/2000/svg">
<path d="M143.921 5.25439H139.22L135.091 10.5877L130.983 5.25439H126.301L132.543 14.0445L126.38 22.6766H131.121L135.131 17.5013L139.042 22.6766H143.842L137.659 14.0445L143.921 5.25439Z" fill="#1E1D20"/>
<path d="M123.674 5.25439H118.993L114.864 10.5877L110.756 5.25439H106.074L112.316 14.0445L106.133 22.6766H110.894L114.884 17.5013L118.815 22.6766H123.615L117.432 14.0445L123.674 5.25439Z" fill="#1E1D20"/>
<path d="M89.205 5.15552V9.16539H99.2198V12.1679H92.4247V16.1777H99.2198V18.6666H89.205V22.6765H103.23V5.15552H89.205Z" fill="#1E1D20"/>
<path d="M76.484 18.6666V5.15552H72.4741V22.6765H86.4988V18.6666H76.484Z" fill="#1E1D20"/>
<path d="M69.7087 9.16539V5.15552H55.7037V22.6765H59.6939V16.1777H66.4889V12.1679H59.6939V9.16539H69.7087Z" fill="#1E1D20"/>
<path d="M35.5951 22.6765H41.9951L45.8272 27.8321H35.5951H29.1951L25.363 22.6765H35.5951Z" fill="#F15A2C"/>
<path d="M38.1037 11.3384L34.6074 16.4939H24.4148L27.8716 11.3384H38.1037Z" fill="#F15A2C"/>
<path d="M45.8272 0V0H35.5951H29.0371L25.5605 5.15556H35.5951H40.9284V5.15556H42.3309L45.8272 0V0Z" fill="#F15A2C"/>
<path d="M10.2321 22.6765H3.67407H3.51605L0 27.8321H10.2321H16.8099L20.2667 22.6765H10.2321Z" fill="#1E1D20"/>
<path d="M11.2197 11.3384H14.5975H21.432L17.9555 16.4939H14.5975H7.72339L11.2197 11.3384Z" fill="#1E1D20"/>
<path d="M10.2321 5.15556H3.8321L0 0H10.2321H16.6321L20.4642 5.15556H10.2321Z" fill="#1E1D20"/>
</svg>
