<svg width="64" height="48" viewBox="0 0 64 48" fill="none" xmlns="http://www.w3.org/2000/svg">
<path fill-rule="evenodd" clip-rule="evenodd" d="M63.6001 13.4667C62.8668 6.40002 56.9335 0.800024 49.8001 0.466691C41.4001 0.0666905 34.4668 6.73336 34.4668 15.0667C34.4668 21.2 38.2668 26.4 43.6001 28.6L35.4001 45.4C34.9335 46.4 35.6668 47.6 36.7335 47.6H42.3335C42.8001 47.6 43.2668 47.4 43.5335 47L61.1335 23.2667C63.0001 20.4667 63.9335 17.0667 63.6001 13.4667Z" fill="#D5481B"/>
<path fill-rule="evenodd" clip-rule="evenodd" d="M15.6673 0.466691C7.26732 0.0666905 0.333984 6.73336 0.333984 15.0667C0.333984 21.2 4.13398 26.4 9.46732 28.6L1.26732 45.4C0.800651 46.4 1.53398 47.6 2.60065 47.6H8.20065C8.66732 47.6 9.13398 47.4 9.40065 47L27.0007 23.2667C28.8673 20.5334 29.8007 17.1334 29.4007 13.5334C28.6673 6.40002 22.734 0.800024 15.6673 0.466691Z" fill="#D5481B"/>
</svg>
