<svg width="64" height="48" viewBox="0 0 64 48" fill="none" xmlns="http://www.w3.org/2000/svg">
<path d="M0.39987 34.1333C1.1332 41.2 7.06654 46.8 14.1999 47.1333C22.5999 47.5333 29.5332 40.8667 29.5332 32.5333C29.5332 26.4 25.7332 21.2 20.3999 19L28.5999 2.20001C29.0665 1.20001 28.3332 1.14441e-05 27.2665 1.14441e-05H21.6665C21.1999 1.14441e-05 20.7332 0.200014 20.4665 0.600014L2.86654 24.3333C0.99987 27.1333 0.0665366 30.5333 0.39987 34.1333Z" fill="#D5481B"/>
<path d="M48.3327 47.1333C56.7327 47.5333 63.666 40.8667 63.666 32.5333C63.666 26.4 59.866 21.2 54.5327 19L62.7327 2.20001C63.1993 1.20001 62.466 1.14441e-05 61.3993 1.14441e-05H55.7993C55.3327 1.14441e-05 54.866 0.200014 54.5993 0.600014L36.9993 24.3333C35.1327 27.0667 34.1993 30.4667 34.5993 34.0667C35.3327 41.2 41.266 46.8 48.3327 47.1333Z" fill="#D5481B"/>
</svg>
